<svg xmlns="http://www.w3.org/2000/svg" width="24.306" height="35" viewBox="0 0 24.306 35">
  <g id="Group_24" data-name="Group 24" transform="translate(-19.025 -1.142)">
    <path id="Path_75" data-name="Path 75" d="M43.331,13.114a12.154,12.154,0,0,0-24.306,0c0,2.606,1.518,6.448,4.921,12.458,1.516,2.689,3.049,5.1,3.873,6.4.283.447.533.839.616.986l1.635,2.555a1.323,1.323,0,0,0,1.109.626,1.228,1.228,0,0,0,1.1-.612l1.587-2.457h0c.377-.508,2.463-3.806,4.545-7.5C41.813,19.562,43.331,15.719,43.331,13.114ZM36.189,24.441c-2.2,3.786-4.311,7.086-4.475,7.294l-.65.948-.6-.894-.027-.035c-.182-.227-2.3-3.527-4.488-7.305-3.065-5.691-4.492-9.292-4.492-11.335a9.614,9.614,0,0,1,19.226.018C40.783,15.186,39.356,18.78,36.189,24.441Z" transform="translate(0)" fill="#a3a3a3"/>
    <path id="Path_76" data-name="Path 76" d="M40.333,15.511a6.836,6.836,0,1,0,6.938,6.824A7.047,7.047,0,0,0,40.333,15.511Zm4.4,6.835a4.4,4.4,0,1,1-4.4-4.333A4.371,4.371,0,0,1,44.731,22.346Z" transform="translate(-9.155 -9.232)" fill="#a3a3a3"/>
  </g>
</svg>
