<svg xmlns="http://www.w3.org/2000/svg" width="29.928" height="40" viewBox="0 0 29.928 40">
  <g id="Group_25" data-name="Group 25" transform="translate(175.442 164.051)">
    <path id="Path_78" data-name="Path 78" d="M-153-162.467a6.093,6.093,0,0,0-1.729-.905l-1.194-.365a3.658,3.658,0,0,0-2.271.046,3.937,3.937,0,0,0-.4-.086l-.519-.1-.074-.014-.506-.066c-.309-.043-.619-.059-.922-.076-.116,0-.226-.011-.337-.023a.182.182,0,0,1-.063,0l-.28,0a9.7,9.7,0,0,0-1.057.033l-.056.007a9.141,9.141,0,0,0-1.32.186l-.19.033c-.158.031-.323.064-.5.113l-.589.179a6.107,6.107,0,0,0-1.014.382l-.2.086a5.153,5.153,0,0,0-.848.433c-.079.044-.156.1-.27.154-.044.03-.084.052-.133.083a2.139,2.139,0,0,0-.355.226l-.4.294c-.074.063-.145.118-.215.173a3.826,3.826,0,0,0-.476.39l-.824.807a.775.775,0,0,0-.11.945.735.735,0,0,0,.417.311.732.732,0,0,0,.47-.009l1.069-.389a3.613,3.613,0,0,1,.361-.092c.1-.017.2-.041.285-.061l.424-.1c.054-.013.123-.016.179-.023s.119-.009.175-.016l.292-.031a3.376,3.376,0,0,1,.568-.026c.09,0,.181.008.269.006a4.839,4.839,0,0,1,.622.045l.04.009.468.063c.093.016.181.04.27.064.068.016.129.034.21.053a5.024,5.024,0,0,1,.734.223l.126.048a5.408,5.408,0,0,1,.546.236l.233.1c.089.05.177.1.263.143a4.11,4.11,0,0,1,.438.262l.322.206.3.211a3.117,3.117,0,0,1,.3.232c.047.04.1.086.15.124s.089.082.131.123a2.267,2.267,0,0,1,.169.153l.063.075a2.092,2.092,0,0,0-.228.523l-.7,2.3c-.241-.373-1.295-1.908-2.773-1.691-1.262.191-2.2,1.564-2.863,4.215a8.172,8.172,0,0,1-5.206,5.993l-.343,1.854c.133-.031.27-.071.424-.12a9.8,9.8,0,0,0,6.736-7.321c.69-2.766,1.411-2.957,1.491-2.969.326-.052.866.513,1.131.938a6.932,6.932,0,0,1,.472,2.207c.015.253.024.534.015.825a11.46,11.46,0,0,1-1.154,4.6l-.455.969,4.527.907,3.773.76a3.281,3.281,0,0,1,.916,1.516,2.033,2.033,0,0,1,.017.889,2.048,2.048,0,0,1-.408,1.035.539.539,0,0,1-.068.061l-3.324-.667a.656.656,0,0,0-.707.329.8.8,0,0,0-.071.19.661.661,0,0,0,.027.359.657.657,0,0,0,.489.43l2.768.556.014.029c0,.012.023.046.047.118a2.023,2.023,0,0,1-.5,2.374.89.89,0,0,1-.119.093l-2.126-.425a.612.612,0,0,0-.721.486l-.016.094a.629.629,0,0,0,.09.466.59.59,0,0,0,.386.261l1.826.368,0,.012a1.812,1.812,0,0,1-.643,1.99,1.773,1.773,0,0,1-.359.182l-.689-.138a.549.549,0,0,0-.414.079.585.585,0,0,0-.236.352l-.042.228a.551.551,0,0,0,.432.649l.073.014c-.257.807-.9,2.207-2.208,1.945l-.542-.109-6.837-1.379-4.91-.99a3.718,3.718,0,0,1-1-.577,2.154,2.154,0,0,1-.336-.344l-.527,1.777a5.329,5.329,0,0,0,1.373.746l5.038,1.018-.28,1.229a3.519,3.519,0,0,0,2.616,4.2,3.5,3.5,0,0,0,4.175-2.638l.319-1.412.588.117a3.549,3.549,0,0,0,.97.059c1.684-.157,2.737-1.7,3.208-3.339l.006,0a.686.686,0,0,0,.209-.088.156.156,0,0,0,.037-.034c.007.005.006,0,.012,0,.085-.046.163-.1.24-.147a3.358,3.358,0,0,0,1.412-3.414l.1-.08a3.619,3.619,0,0,0,1.135-3.618,2.178,2.178,0,0,0,.285-.254,3.688,3.688,0,0,0,.844-1.864,4.537,4.537,0,0,0-1.676-4.163l-.15-.124-4.032-.807,2.9-9.678a1.975,1.975,0,0,0,.075-.333c.153,0,.313,0,.471,0,.419,1.352,3.977,2.311,6.881,3.2l2.554-8.522C-149.3-162.436-151.907-163.356-153-162.467Z" transform="translate(0)" fill="#b3b3b3"/>
    <path id="Path_79" data-name="Path 79" d="M-174.821-111.722l-.621.722A3.54,3.54,0,0,0-174.821-111.722Z" transform="translate(0 -23.977)" fill="#b3b3b3"/>
  </g>
</svg>
