<svg xmlns="http://www.w3.org/2000/svg" width="35.979" height="35.977" viewBox="0 0 35.979 35.977">
  <g id="layer1" transform="translate(47.944 -29.969) rotate(77)">
    <g id="g410" transform="translate(24.992 24.975)">
      <path id="path408" d="M54.284,50.855l-7.772-7.766a2.359,2.359,0,0,0-1.665-.707l-1.1-.018.617-.916A10.589,10.589,0,1,0,41.47,44.34l.916-.611.012,1.1A2.384,2.384,0,0,0,43.1,46.5l7.772,7.772a2.407,2.407,0,0,0,3.407,0A2.418,2.418,0,0,0,54.284,50.855Zm-12.814-9.4a8.334,8.334,0,1,1,2.443-5.9A8.308,8.308,0,0,1,41.47,41.454Z" transform="translate(-24.992 -24.975)" fill="#a3a3a3"/>
      <path id="Path_80" data-name="Path 80" d="M54.284,50.855l-7.772-7.766a2.359,2.359,0,0,0-1.665-.707l-1.1-.018.617-.916A10.589,10.589,0,1,0,41.47,44.34l.916-.611.012,1.1A2.384,2.384,0,0,0,43.1,46.5l7.772,7.772a2.407,2.407,0,0,0,3.407,0A2.418,2.418,0,0,0,54.284,50.855Zm-12.814-9.4a8.334,8.334,0,1,1,2.443-5.9A8.308,8.308,0,0,1,41.47,41.454Z" transform="translate(-24.992 -24.975)" fill="#a3a3a3"/>
    </g>
  </g>
</svg>
